<svg width="29260" height="29260" viewBox="0 0 29260 29260" fill="none" xmlns="http://www.w3.org/2000/svg">
<path d="M15232 7315C15866.7 7315 16408 7408.33 16856 7595C17313.3 7781.67 17663.3 8052.33 17906 8407C18158 8761.67 18284 9191 18284 9695C18284 10273.7 18116 10773 17780 11193C17491 11554.2 17129.6 11880.9 16695.6 12173.1C17144.2 12421.8 17491.7 12739.1 17738 13125C17807.5 13236.1 17868.3 13349.8 17920.5 13466.1C18044.9 13259.2 18156.7 13033.5 18256 12789C18386.7 12481 18484.7 12159 18550 11823H21322C21172.7 12504.3 20948.7 13157.7 20650 13783C20351.3 14408.3 20029.3 14926.3 19684 15337L21868 17437H18410L17738 16737C17486 16895.7 17234 17040.3 16982 17171C16802.2 17260.9 16591.6 17338 16350.3 17402.3C16514.5 17596.7 16659.7 17795 16786 17997C16916.7 18230.3 17019.3 18473 17094 18725C17159.3 18986.3 17192 19266.3 17192 19565C17192 20031.7 17075.3 20442.3 16842 20797C16599.3 21151.7 16244.7 21431.7 15778 21637C15302 21842.3 14718.7 21945 14028 21945C13393.3 21945 12852 21851.7 12404 21665C11946.7 21478.3 11596.7 21207.7 11354 20853C11102 20498.3 10976 20069 10976 19565C10976 18986.3 11144 18487 11480 18067C11769 17705.8 12130.4 17379.1 12564.4 17086.9C12115.8 16838.2 11768.3 16520.9 11522 16135C11452.5 16023.9 11391.7 15910.2 11339.5 15793.9C11215.1 16000.8 11103.3 16226.5 11004 16471C10873.3 16779 10775.3 17101 10710 17437H7938C8087.33 16755.7 8311.33 16102.3 8610 15477C8908.67 14851.7 9230.67 14333.7 9576 13923L7392 11823H10850L11522 12523C11774 12364.3 12026 12219.7 12278 12089C12457.8 11999.1 12668.4 11922 12909.7 11857.7C12745.5 11663.3 12600.3 11465 12474 11263C12343.3 11029.7 12240.7 10787 12166 10535C12100.7 10273.7 12068 9993.67 12068 9695C12068 9228.33 12184.7 8817.67 12418 8463C12660.7 8108.33 13015.3 7828.33 13482 7623C13958 7417.67 14541.3 7315 15232 7315ZM14182 18417C13920.7 18566.3 13724.7 18743.7 13594 18949C13454 19154.3 13384 19359.7 13384 19565C13384 19789 13449.3 19947.7 13580 20041C13710.7 20143.7 13874 20195 14070 20195C14256.7 20195 14424.7 20139 14574 20027C14714 19915 14784 19733 14784 19481C14784 19275.7 14723.3 19084.3 14602 18907C14480.7 18729.7 14340.7 18566.3 14182 18417ZM14280 13811C14191.3 13811 14106.4 13814.8 14025.2 13822.3C13977.9 13902.8 13941.5 13987.7 13916 14077C13878.7 14198.3 13860 14329 13860 14469C13860 14758.3 13962.7 14996.3 14168 15183C14373.3 15360.3 14644 15449 14980 15449C15068.7 15449 15153.7 15445.2 15234.8 15437.7C15282.1 15357.2 15318.5 15272.3 15344 15183C15381.3 15061.7 15400 14931 15400 14791C15400 14501.7 15297.3 14263.7 15092 14077C14886.7 13899.7 14616 13811 14280 13811ZM15190 9065C15003.3 9065 14835.3 9121 14686 9233C14546 9345 14476 9527 14476 9779C14476 9984.33 14536.7 10175.7 14658 10353C14779.3 10530.3 14919.3 10693.7 15078 10843C15339.3 10693.7 15535.3 10516.3 15666 10311C15806 10105.7 15876 9900.33 15876 9695C15876 9471 15810.7 9312.33 15680 9219C15549.3 9116.33 15386 9065 15190 9065Z" fill="black"/>
</svg>
